<svg width="16" height="17" viewBox="0 0 16 17" fill="none" xmlns="http://www.w3.org/2000/svg">
<path d="M8.00028 8.5001C9.06118 8.5001 10.0786 8.07867 10.8288 7.32851C11.579 6.57836 12.0004 5.56093 12.0004 4.50005C12.0004 3.43917 11.579 2.42174 10.8288 1.67159C10.0786 0.921433 9.06118 0.5 8.00028 0.5C6.93937 0.5 5.92192 0.921433 5.17175 1.67159C4.42158 2.42174 4.00014 3.43917 4.00014 4.50005C4.00014 5.56093 4.42158 6.57836 5.17175 7.32851C5.92192 8.07867 6.93937 8.5001 8.00028 8.5001ZM10.667 4.50005C10.667 5.2073 10.3861 5.88559 9.88596 6.38569C9.38585 6.8858 8.70755 7.16675 8.00028 7.16675C7.29301 7.16675 6.61471 6.8858 6.11459 6.38569C5.61448 5.88559 5.33352 5.2073 5.33352 4.50005C5.33352 3.7928 5.61448 3.11451 6.11459 2.61441C6.61471 2.11431 7.29301 1.83335 8.00028 1.83335C8.70755 1.83335 9.38585 2.11431 9.88596 2.61441C10.3861 3.11451 10.667 3.7928 10.667 4.50005ZM16.0006 15.1669C16.0006 16.5002 14.6672 16.5002 14.6672 16.5002H1.33338C1.33338 16.5002 0 16.5002 0 15.1669C0 13.8335 1.33338 9.83345 8.00028 9.83345C14.6672 9.83345 16.0006 13.8335 16.0006 15.1669ZM14.6672 15.1615C14.6658 14.8335 14.4618 13.8468 13.5578 12.9428C12.6884 12.0735 11.0524 11.1668 8.00028 11.1668C4.94684 11.1668 3.31211 12.0735 2.44275 12.9428C1.53872 13.8468 1.33605 14.8335 1.33338 15.1615H14.6672Z" fill="black"/>
</svg>
