<svg width="16" height="15" viewBox="0 0 16 15" fill="none" xmlns="http://www.w3.org/2000/svg">
<path d="M5.75798 0.0711235C5.81432 0.104865 5.86347 0.149376 5.90261 0.202115C5.94175 0.254854 5.97012 0.314788 5.98609 0.378492C6.00206 0.442196 6.00533 0.508423 5.9957 0.57339C5.98607 0.638356 5.96374 0.70079 5.92998 0.757124L3.38398 5.00012H12.618L10.071 0.757124C10.0028 0.643346 9.98265 0.507151 10.0149 0.378501C10.0472 0.249851 10.1292 0.139284 10.243 0.0711235C10.3568 0.00296281 10.4929 -0.017208 10.6216 0.0150482C10.7502 0.0473045 10.8608 0.129346 10.929 0.243124L13.784 5.00012H15.501C15.6336 5.00012 15.7608 5.0528 15.8545 5.14657C15.9483 5.24034 16.001 5.36752 16.001 5.50012V6.50012C16.001 6.63273 15.9483 6.75991 15.8545 6.85368C15.7608 6.94745 15.6336 7.00012 15.501 7.00012H0.500977C0.368368 7.00012 0.241191 6.94745 0.147423 6.85368C0.053655 6.75991 0.000976563 6.63273 0.000976562 6.50012V5.50012C0.000976563 5.36752 0.053655 5.24034 0.147423 5.14657C0.241191 5.0528 0.368368 5.00012 0.500977 5.00012H2.21798L5.07098 0.243124C5.10472 0.186778 5.14923 0.137631 5.20197 0.0984909C5.25471 0.059351 5.31464 0.0309845 5.37835 0.015012C5.44205 -0.000960496 5.50828 -0.00422605 5.57324 0.00540169C5.63821 0.0150294 5.70164 0.0373619 5.75798 0.0711235ZM2.46898 14.4261L0.943977 8.00012H15.058L13.533 14.4261C13.4935 14.5897 13.4001 14.7353 13.2679 14.8394C13.1357 14.9435 12.9723 15.0001 12.804 15.0001H3.19798C3.02951 15.0003 2.86588 14.9438 2.73345 14.8397C2.60102 14.7356 2.50851 14.5899 2.46898 14.4261Z" fill="black"/>
</svg>
