<svg width="11" height="10" viewBox="0 0 11 10" fill="none" xmlns="http://www.w3.org/2000/svg">
<path fill-rule="evenodd" clip-rule="evenodd" d="M0.000488281 8.50153C0.000488281 8.36892 0.0531668 8.24174 0.146935 8.14797C0.240703 8.0542 0.36788 8.00153 0.500488 8.00153H10.5005C10.6331 8.00153 10.7603 8.0542 10.854 8.14797C10.9478 8.24174 11.0005 8.36892 11.0005 8.50153C11.0005 8.63413 10.9478 8.76131 10.854 8.85508C10.7603 8.94885 10.6331 9.00153 10.5005 9.00153H0.500488C0.36788 9.00153 0.240703 8.94885 0.146935 8.85508C0.0531668 8.76131 0.000488281 8.63413 0.000488281 8.50153ZM0.000488281 4.50153C0.000488281 4.36892 0.0531668 4.24174 0.146935 4.14797C0.240703 4.0542 0.36788 4.00153 0.500488 4.00153H10.5005C10.6331 4.00153 10.7603 4.0542 10.854 4.14797C10.9478 4.24174 11.0005 4.36892 11.0005 4.50153C11.0005 4.63413 10.9478 4.76131 10.854 4.85508C10.7603 4.94885 10.6331 5.00153 10.5005 5.00153H0.500488C0.36788 5.00153 0.240703 4.94885 0.146935 4.85508C0.0531668 4.76131 0.000488281 4.63413 0.000488281 4.50153ZM0.000488281 0.501526C0.000488281 0.368918 0.0531668 0.241741 0.146935 0.147973C0.240703 0.0542044 0.36788 0.00152588 0.500488 0.00152588H10.5005C10.6331 0.00152588 10.7603 0.0542044 10.854 0.147973C10.9478 0.241741 11.0005 0.368918 11.0005 0.501526C11.0005 0.634134 10.9478 0.761311 10.854 0.855079C10.7603 0.948847 10.6331 1.00153 10.5005 1.00153H0.500488C0.36788 1.00153 0.240703 0.948847 0.146935 0.855079C0.0531668 0.761311 0.000488281 0.634134 0.000488281 0.501526Z" fill="black"/>
</svg>
