<svg width="16" height="17" viewBox="0 0 16 17" fill="none" xmlns="http://www.w3.org/2000/svg">
<path d="M4.00063 0.5C6.2107 0.5 8.00077 2.54815 8.00077 5.07479C8.00077 2.54815 9.79083 0.5 12.0009 0.5C14.211 0.5 16.001 2.54815 16.001 5.07479C16.001 8.88284 12.7669 10.2261 8.39278 16.2877C8.34462 16.3543 8.28459 16.4078 8.21689 16.4445C8.14918 16.4812 8.07542 16.5002 8.00077 16.5002C7.92611 16.5002 7.85235 16.4812 7.78465 16.4445C7.71694 16.4078 7.65691 16.3543 7.60875 16.2877C3.2346 10.2261 0.000488281 8.88284 0.000488281 5.07479C0.000488281 2.54815 1.79055 0.5 4.00063 0.5Z" fill="black"/>
</svg>
